<?xml version="1.0" encoding="utf-8"?>
<!-- Generator: Adobe Illustrator 16.0.0, SVG Export Plug-In . SVG Version: 6.00 Build 0)  -->
<!DOCTYPE svg PUBLIC "-//W3C//DTD SVG 1.1//EN" "http://www.w3.org/Graphics/SVG/1.1/DTD/svg11.dtd">
<svg version="1.1" id="Layer_1" xmlns="http://www.w3.org/2000/svg" xmlns:xlink="http://www.w3.org/1999/xlink" x="0px" y="0px"
	 width="244.801px" height="119.759px" viewBox="0 0 244.801 119.759" enable-background="new 0 0 244.801 119.759"
	 xml:space="preserve">
<g>
	<circle fill="#F7826B" cx="191.256" cy="38.53" r="29.273"/>
	<g>
		<path fill="#414042" d="M10.757,102.655l-4.25,1.473v13.378L0,119.759V84.82l10.757-3.727c4.932-1.708,7.922,0.087,7.922,5.124
			v5.876C18.679,97.077,15.688,100.946,10.757,102.655z M12.383,88.504c0-1.731-0.683-2.386-2.309-1.823l-3.567,1.236v11.174
			l3.567-1.235c1.626-0.563,2.309-1.692,2.309-3.423V88.504z"/>
		<path fill="#414042" d="M26.075,110.726v-34.94l16.685-5.78v5.613l-10.179,3.527V87.8l7.031-2.436v5.141l-7.031,2.437v9.706
			L42.76,99.12v5.823L26.075,110.726z"/>
		<path fill="#414042" d="M66.369,96.972c-2.572,0.892-3.568-0.861-3.568-3.903v-6.558c0-1.626-0.84-2.7-2.676-2.063l-3.411,1.183
			v14.479l-6.506,2.255v-34.94l10.757-3.725c4.773-1.655,7.976-0.037,7.976,4.842v4.931c0,2.624-1.208,4.983-3.936,6.769
			c2.728-0.211,4.04,1.642,4.04,3.898v6.4c0,1.625,0.473,2.564,1.259,3.131v1.939L66.369,96.972z M62.591,71.003
			c0-1.574-0.682-2.282-2.308-1.719l-3.569,1.236v10.282l3.306-1.146c1.68-0.582,2.571-1.782,2.571-3.671V71.003z"/>
		<path fill="#414042" d="M85.885,90.788c-5.98,2.072-9.707-0.203-9.707-5.66v-2.413l5.982-2.073v2.047
			c0,2.57,1.206,3.568,3.567,2.75c2.309-0.799,3.463-2.564,3.463-4.714c0-2.78-1.784-4.052-5.247-5.422
			c-3.568-1.335-7.451-3.45-7.451-8.329c0-5.037,3.254-10.52,9.551-12.701c5.509-1.908,9.182,0.597,9.182,5.789v2.256l-5.929,2.055
			v-2.098c0-2.152-1.103-3.344-3.307-2.58c-1.888,0.655-3.147,2.297-3.147,4.239c0,2.938,1.731,3.858,5.613,5.347
			c4.146,1.658,7.084,3.789,7.084,8.51C95.539,83.403,91.656,88.789,85.885,90.788z"/>
		<path fill="#414042" d="M102.987,84.074V49.137l6.505-2.255V81.82L102.987,84.074z"/>
		<path fill="#414042" d="M138.77,71.677V46.338l-1.418,8.099l-3.725,19.022l-4.932,1.709l-3.516-16.514l-1.364-7.135v25.339
			l-5.822,2.018V43.938l8.761-3.036l3.621,16.477l1.102,6.07l1.154-6.851l3.567-18.969l8.71-3.018V69.55L138.77,71.677z"/>
		<path fill="#414042" d="M174.131,59.425V34.086l-1.417,8.098l-3.726,19.022l-4.933,1.709l-3.515-16.514l-1.364-7.134v25.338
			l-5.823,2.019V31.686l8.763-3.036l3.62,16.478l1.102,6.07l1.154-6.853l3.568-18.968l8.709-3.018v34.938L174.131,59.425z"/>
		<path fill="#414042" d="M239.764,36.684l-6.768-12.555l-2.467-4.706v20.46l-5.981,2.073V7.018l5.614-1.945l6.454,12.924
			l2.308,4.762V2.035L244.801,0v34.938L239.764,36.684z"/>
	</g>
	<g>
		<g>
			<polygon fill="#414042" points="199.085,36.1 196.56,33.575 192.986,33.575 190.462,36.1 190.462,42.197 196.56,42.197 
				199.085,39.673 			"/>
			<polygon fill="#414042" points="199.085,25.887 196.56,23.363 192.658,23.361 190.462,23.362 190.462,29.461 192.986,31.985 
				196.56,31.985 199.085,29.459 			"/>
			<polygon fill="#414042" points="200.674,39.673 203.201,42.197 207.103,42.196 209.299,42.197 209.299,36.1 206.773,33.575 
				203.2,33.575 200.674,36.1 			"/>
			<polygon fill="#414042" points="209.299,25.559 209.297,23.362 207.102,23.361 203.201,23.362 200.674,25.888 200.674,29.459 
				203.2,31.985 206.773,31.986 209.297,29.459 			"/>
		</g>
	</g>
</g>
</svg>
